<?xml version="1.0" encoding="UTF-8" standalone="no"?>
<!-- Created with Inkscape (http://www.inkscape.org/) -->

<svg
   xmlns:dc="http://purl.org/dc/elements/1.1/"
   xmlns:cc="http://creativecommons.org/ns#"
   xmlns:rdf="http://www.w3.org/1999/02/22-rdf-syntax-ns#"
   xmlns:svg="http://www.w3.org/2000/svg"
   xmlns="http://www.w3.org/2000/svg"
   xmlns:sodipodi="http://sodipodi.sourceforge.net/DTD/sodipodi-0.dtd"
   xmlns:inkscape="http://www.inkscape.org/namespaces/inkscape"
   width="1581"
   height="512.91589"
   id="svg2"
   version="1.1"
   inkscape:version="0.48.4 r9939"
   sodipodi:docname="New document 1">
  <defs
     id="defs4" />
  <sodipodi:namedview
     id="base"
     pagecolor="#ffffff"
     bordercolor="#666666"
     borderopacity="1.0"
     inkscape:pageopacity="0.0"
     inkscape:pageshadow="2"
     inkscape:zoom="0.49497475"
     inkscape:cx="880.57324"
     inkscape:cy="269.77338"
     inkscape:document-units="px"
     inkscape:current-layer="layer1"
     showgrid="false"
     fit-margin-top="0"
     fit-margin-left="0"
     fit-margin-right="0"
     fit-margin-bottom="0"
     inkscape:window-width="1918"
     inkscape:window-height="1176"
     inkscape:window-x="1920"
     inkscape:window-y="0"
     inkscape:window-maximized="0" />
  <metadata
     id="metadata7">
    <rdf:RDF>
      <cc:Work
         rdf:about="">
        <dc:format>image/svg+xml</dc:format>
        <dc:type
           rdf:resource="http://purl.org/dc/dcmitype/StillImage" />
        <dc:title></dc:title>
      </cc:Work>
    </rdf:RDF>
  </metadata>
  <g
     inkscape:label="Layer 1"
     inkscape:groupmode="layer"
     id="layer1"
     transform="translate(-43.4375,-178.76765)">
    <text
       xml:space="preserve"
       style="font-size:40px;font-style:normal;font-variant:normal;font-weight:normal;font-stretch:normal;line-height:125%;letter-spacing:0px;word-spacing:0px;fill:#000000;fill-opacity:1;stroke:none;font-family:Monospace;-inkscape-font-specification:Monospace"
       x="1114.1982"
       y="691.68353"
       id="text3843"
       sodipodi:linespacing="125%"><tspan
         sodipodi:role="line"
         id="tspan3845"
         x="1114.1982"
         y="691.68353"> </tspan></text>
    <g
       id="g4013"
       transform="translate(0,-0.17785203)">
      <path
         transform="translate(0,308.26765)"
         id="rect2985"
         d="m 44.1875,198.4375 0,184.40625 377.3125,0 0,-0.28125 -377.0625,0 0,-183.84375 377.0625,0 0,-0.28125 -377.3125,0 z m 377.3125,0.28125 0,183.84375 536.125,0 0,-183.84375 -536.125,0 z"
         style="color:#000000;fill:#f2f2f2;fill-opacity:1;fill-rule:nonzero;stroke:#000000;stroke-width:1.5;stroke-linecap:round;stroke-linejoin:round;stroke-miterlimit:4;stroke-opacity:1;stroke-dasharray:none;marker:none;visibility:visible;display:inline;overflow:visible;enable-background:accumulate"
         inkscape:connector-curvature="0" />
      <rect
         y="614.21893"
         x="609.69"
         height="63.572533"
         width="165.36093"
         id="rect2985-2"
         style="color:#000000;fill:#f2f2f2;fill-opacity:1;fill-rule:nonzero;stroke:#000000;stroke-width:0.37534925;stroke-linecap:round;stroke-linejoin:round;stroke-miterlimit:4;stroke-opacity:1;stroke-dasharray:none;marker:none;visibility:visible;display:inline;overflow:visible;enable-background:accumulate" />
      <rect
         transform="scale(-1,-1)"
         y="-677.79144"
         x="-944.78717"
         height="63.572533"
         width="165.36093"
         id="rect2985-2-4"
         style="color:#000000;fill:#c83737;fill-opacity:1;fill-rule:nonzero;stroke:#000000;stroke-width:0.37534925;stroke-linecap:round;stroke-linejoin:round;stroke-miterlimit:4;stroke-opacity:1;stroke-dasharray:none;marker:none;visibility:visible;display:inline;overflow:visible;enable-background:accumulate" />
      <rect
         transform="scale(-1,-1)"
         y="-677.79144"
         x="-605.31464"
         height="63.572533"
         width="165.36093"
         id="rect2985-2-8"
         style="color:#000000;fill:#f2f2f2;fill-opacity:1;fill-rule:nonzero;stroke:#000000;stroke-width:0.37534925;stroke-linecap:round;stroke-linejoin:round;stroke-miterlimit:4;stroke-opacity:1;stroke-dasharray:none;marker:none;visibility:visible;display:inline;overflow:visible;enable-background:accumulate" />
      <g
         id="text3831"
         style="font-size:35.52639771px;font-style:normal;font-variant:normal;font-weight:normal;font-stretch:normal;line-height:125%;letter-spacing:0px;word-spacing:0px;fill:#000000;fill-opacity:1;stroke:none;font-family:Monospace;-inkscape-font-specification:Monospace">
        <path
           id="path3848"
           d="m 465.30275,637.80012 0,-1.02346 c -1e-5,-0.34692 0.0636,-0.59556 0.19082,-0.74592 0.13876,-0.15032 0.31801,-0.22549 0.53775,-0.22551 0.21971,2e-5 0.39318,0.0752 0.52041,0.22551 0.13875,0.15036 0.20814,0.399 0.20816,0.74592 l 0,4.04182 c -2e-5,0.35852 -0.0694,0.61294 -0.20816,0.76326 -0.12723,0.15035 -0.3007,0.22552 -0.52041,0.22551 -0.19661,1e-5 -0.3643,-0.0694 -0.50306,-0.20816 -0.12723,-0.13876 -0.2024,-0.36427 -0.22551,-0.67653 -0.0578,-0.97141 -0.58403,-1.83297 -1.57856,-2.58468 -1.34151,-1.02923 -2.86803,-1.54386 -4.57958,-1.54388 -1.12177,2e-5 -2.17993,0.24866 -3.17448,0.74592 -0.74014,0.35852 -1.32993,0.79797 -1.76938,1.31836 -0.76326,0.90206 -1.3704,1.90239 -1.82142,3.00101 -0.32381,0.80953 -0.48571,1.72314 -0.48571,2.74081 l 0,2.54999 c 0,2.17415 0.78639,4.06495 2.35917,5.67243 1.57278,1.59591 3.39998,2.39386 5.48162,2.39386 1.24896,0 2.36494,-0.27176 3.34794,-0.8153 0.99454,-0.54353 1.9544,-1.36462 2.87958,-2.46326 0.19658,-0.24285 0.41631,-0.36428 0.65919,-0.36428 0.20814,0 0.37583,0.0636 0.50305,0.19082 0.1272,0.12721 0.1908,0.28911 0.19082,0.48571 -2e-5,0.26599 -0.24866,0.67075 -0.74592,1.21428 -0.94831,1.06394 -2.01803,1.86768 -3.20917,2.41121 -1.1796,0.53198 -2.37653,0.79796 -3.5908,0.79796 -1.05239,0 -2.12211,-0.20238 -3.20917,-0.60714 -0.83266,-0.31224 -1.52075,-0.67653 -2.06428,-1.09285 -0.54354,-0.41633 -1.21429,-1.11598 -2.01224,-2.09897 -0.78639,-0.99455 -1.32414,-1.90816 -1.61326,-2.74081 -0.28911,-0.84421 -0.43367,-1.76937 -0.43367,-2.7755 l 0,-2.96632 c 0,-1.43399 0.38163,-2.89691 1.1449,-4.38875 0.77482,-1.50338 1.82719,-2.65406 3.15713,-3.45203 1.34148,-0.8095 2.79283,-1.21426 4.35406,-1.21428 2.40542,2e-5 4.47548,0.8211 6.21018,2.46325"
           inkscape:connector-curvature="0" />
        <path
           id="path3850"
           d="m 488.3394,648.62457 c -2e-5,2.22041 -0.79797,4.117 -2.39387,5.68978 -1.58436,1.57278 -3.4983,2.35917 -5.74181,2.35917 -2.26667,0 -4.19217,-0.78639 -5.77651,-2.35917 -1.58435,-1.58435 -2.37652,-3.48094 -2.37652,-5.68978 0,-2.22039 0.79217,-4.11698 2.37652,-5.68977 1.58434,-1.58434 3.50984,-2.37651 5.77651,-2.37652 2.24351,1e-5 4.15745,0.7864 5.74181,2.35917 1.5959,1.57279 2.39385,3.47517 2.39387,5.70712 m -1.47448,0 c -2e-5,-1.82719 -0.65342,-3.38263 -1.9602,-4.66631 -1.29525,-1.28365 -2.86803,-1.92549 -4.71835,-1.9255 -1.85034,10e-6 -3.4289,0.64763 -4.7357,1.94285 -1.29523,1.28368 -1.94285,2.83333 -1.94285,4.64896 0,1.80408 0.64762,3.35373 1.94285,4.64896 1.3068,1.29524 2.88536,1.94285 4.7357,1.94285 1.85032,0 3.4231,-0.64183 4.71835,-1.9255 1.30678,-1.29523 1.96018,-2.85066 1.9602,-4.66631"
           inkscape:connector-curvature="0" />
        <path
           id="path3852"
           d="m 494.86183,641.07868 0,1.47449 c 1.2374,-1.32992 2.48059,-1.99488 3.72958,-1.99489 0.75168,1e-5 1.41087,0.20239 1.97754,0.60714 0.56665,0.39321 1.0408,0.99456 1.42244,1.80407 0.64761,-0.80951 1.30101,-1.41086 1.9602,-1.80407 0.67073,-0.40475 1.34148,-0.60713 2.01224,-0.60714 1.05236,1e-5 1.89079,0.34117 2.51529,1.02346 0.82107,0.87892 1.23161,1.83878 1.23163,2.87958 l 0,10.18262 1.23163,0 c 0.34692,0 0.59555,0.0694 0.74592,0.20816 0.15031,0.12721 0.22548,0.30068 0.2255,0.52041 -2e-5,0.20816 -0.0752,0.38163 -0.2255,0.5204 -0.15037,0.13878 -0.399,0.20816 -0.74592,0.20816 l -2.68877,0 0,-11.50097 c -10e-6,-0.74012 -0.22552,-1.35305 -0.67652,-1.83877 -0.45104,-0.4857 -0.97144,-0.72856 -1.56122,-0.72857 -0.53199,10e-6 -1.09287,0.20239 -1.68265,0.60714 -0.58981,0.39321 -1.26055,1.17382 -2.01224,2.34183 l 0,9.66221 1.21428,0 c 0.34693,0 0.59557,0.0694 0.74592,0.20816 0.15033,0.12721 0.2255,0.30068 0.22551,0.52041 -10e-6,0.20816 -0.0752,0.38163 -0.22551,0.5204 -0.15035,0.13878 -0.39899,0.20816 -0.74592,0.20816 l -2.68876,0 0,-11.39689 c -10e-6,-0.77482 -0.2313,-1.41087 -0.69388,-1.90816 -0.45102,-0.50883 -0.95986,-0.76325 -1.52652,-0.76326 -0.52041,10e-6 -1.03504,0.1677 -1.54387,0.50306 -0.70545,0.47416 -1.44558,1.28946 -2.2204,2.44591 l 0,9.66221 1.23163,0 c 0.34693,0 0.59557,0.0694 0.74591,0.20816 0.15033,0.12721 0.2255,0.30068 0.22551,0.52041 -1e-5,0.20816 -0.0752,0.38163 -0.22551,0.5204 -0.15034,0.13878 -0.39898,0.20816 -0.74591,0.20816 l -3.9204,0 c -0.34694,0 -0.59557,-0.0694 -0.74591,-0.20816 -0.15034,-0.13877 -0.22551,-0.31224 -0.22551,-0.5204 0,-0.21973 0.0752,-0.3932 0.22551,-0.52041 0.15034,-0.13877 0.39897,-0.20816 0.74591,-0.20816 l 1.23163,0 0,-12.09077 -1.23163,0 c -0.34694,10e-6 -0.59557,-0.0694 -0.74591,-0.20817 -0.15034,-0.13876 -0.22551,-0.31801 -0.22551,-0.53775 0,-0.20815 0.0752,-0.38162 0.22551,-0.52041 0.15034,-0.13876 0.39897,-0.20814 0.74591,-0.20816 l 2.68877,0"
           inkscape:connector-curvature="0" />
        <path
           id="path3854"
           d="m 516.16379,641.07868 0,1.47449 c 1.2374,-1.32992 2.48059,-1.99488 3.72958,-1.99489 0.75168,1e-5 1.41087,0.20239 1.97754,0.60714 0.56665,0.39321 1.0408,0.99456 1.42244,1.80407 0.64761,-0.80951 1.30101,-1.41086 1.9602,-1.80407 0.67073,-0.40475 1.34148,-0.60713 2.01224,-0.60714 1.05236,1e-5 1.89079,0.34117 2.51529,1.02346 0.82107,0.87892 1.23161,1.83878 1.23163,2.87958 l 0,10.18262 1.23163,0 c 0.34692,0 0.59555,0.0694 0.74592,0.20816 0.15031,0.12721 0.22548,0.30068 0.2255,0.52041 -2e-5,0.20816 -0.0752,0.38163 -0.2255,0.5204 -0.15037,0.13878 -0.399,0.20816 -0.74592,0.20816 l -2.68877,0 0,-11.50097 c -10e-6,-0.74012 -0.22552,-1.35305 -0.67652,-1.83877 -0.45104,-0.4857 -0.97144,-0.72856 -1.56122,-0.72857 -0.53199,10e-6 -1.09287,0.20239 -1.68265,0.60714 -0.58981,0.39321 -1.26055,1.17382 -2.01224,2.34183 l 0,9.66221 1.21428,0 c 0.34693,0 0.59557,0.0694 0.74592,0.20816 0.15033,0.12721 0.2255,0.30068 0.22551,0.52041 -10e-6,0.20816 -0.0752,0.38163 -0.22551,0.5204 -0.15035,0.13878 -0.39899,0.20816 -0.74592,0.20816 l -2.68876,0 0,-11.39689 c -10e-6,-0.77482 -0.2313,-1.41087 -0.69388,-1.90816 -0.45102,-0.50883 -0.95986,-0.76325 -1.52652,-0.76326 -0.52041,10e-6 -1.03504,0.1677 -1.54387,0.50306 -0.70545,0.47416 -1.44558,1.28946 -2.2204,2.44591 l 0,9.66221 1.23163,0 c 0.34693,0 0.59557,0.0694 0.74591,0.20816 0.15033,0.12721 0.2255,0.30068 0.22551,0.52041 -10e-6,0.20816 -0.0752,0.38163 -0.22551,0.5204 -0.15034,0.13878 -0.39898,0.20816 -0.74591,0.20816 l -3.9204,0 c -0.34694,0 -0.59557,-0.0694 -0.74591,-0.20816 -0.15034,-0.13877 -0.22551,-0.31224 -0.22551,-0.5204 0,-0.21973 0.0752,-0.3932 0.22551,-0.52041 0.15034,-0.13877 0.39897,-0.20816 0.74591,-0.20816 l 1.23163,0 0,-12.09077 -1.23163,0 c -0.34694,10e-6 -0.59557,-0.0694 -0.74591,-0.20817 -0.15034,-0.13876 -0.22551,-0.31801 -0.22551,-0.53775 0,-0.20815 0.0752,-0.38162 0.22551,-0.52041 0.15034,-0.13876 0.39897,-0.20814 0.74591,-0.20816 l 2.68877,0"
           inkscape:connector-curvature="0" />
        <path
           id="path3856"
           d="m 551.98508,648.93682 -14.84892,0 c 0.25442,1.88503 1.04081,3.40577 2.35918,4.56222 1.32992,1.1449 2.97208,1.71734 4.92651,1.71734 1.08706,0 2.22617,-0.17925 3.41733,-0.53775 1.19114,-0.3585 2.16256,-0.83265 2.91428,-1.42244 0.21971,-0.17347 0.41052,-0.2602 0.57244,-0.26021 0.18502,10e-6 0.34692,0.0752 0.48572,0.22551 0.13875,0.13878 0.20814,0.30647 0.20816,0.50306 -2e-5,0.1966 -0.0925,0.38742 -0.27755,0.57245 -0.55512,0.57823 -1.54389,1.12176 -2.96632,1.63061 -1.41089,0.49727 -2.86224,0.74591 -4.35406,0.74591 -2.49796,0 -4.58537,-0.8153 -6.26222,-2.44591 -1.66531,-1.64217 -2.49796,-3.62549 -2.49795,-5.94998 -1e-5,-2.1163 0.7806,-3.93194 2.34182,-5.44691 1.57278,-1.51495 3.51563,-2.27243 5.82855,-2.27244 2.3823,1e-5 4.34249,0.78062 5.88059,2.34182 1.53808,1.54967 2.29556,3.5619 2.27244,6.03672 m -1.47448,-1.47449 c -0.28913,-1.60747 -1.05239,-2.91426 -2.28979,-3.92039 -1.22586,-1.00611 -2.68877,-1.50917 -4.38876,-1.50918 -1.7,10e-6 -3.16292,0.49729 -4.38876,1.49183 -1.22585,0.99457 -1.98911,2.30715 -2.28978,3.93774 l 13.35709,0"
           inkscape:connector-curvature="0" />
        <path
           id="path3858"
           d="m 560.69322,641.07868 0,2.20305 c 1.01767,-1.02923 1.93706,-1.74045 2.75815,-2.13366 0.82108,-0.39318 1.74624,-0.58978 2.7755,-0.58979 1.11019,1e-5 2.12209,0.23708 3.0357,0.71122 0.64761,0.34695 1.23162,0.92518 1.75204,1.73468 0.53195,0.79797 0.79794,1.61906 0.79795,2.46326 l 0,9.1765 1.23163,0 c 0.34692,0 0.59556,0.0694 0.74592,0.20816 0.15032,0.12721 0.22549,0.30068 0.22551,0.52041 -2e-5,0.20816 -0.0752,0.38163 -0.22551,0.5204 -0.15036,0.13878 -0.399,0.20816 -0.74592,0.20816 l -3.90304,0 c -0.35852,0 -0.61294,-0.0694 -0.76327,-0.20816 -0.15035,-0.13877 -0.22552,-0.31224 -0.22551,-0.5204 -10e-6,-0.21973 0.0752,-0.3932 0.22551,-0.52041 0.15033,-0.13877 0.40475,-0.20816 0.76327,-0.20816 l 1.21428,0 0,-8.93364 c -2e-5,-1.02924 -0.37587,-1.89658 -1.12755,-2.60203 -0.75171,-0.71699 -1.75783,-1.0755 -3.01836,-1.07551 -0.95987,10e-6 -1.79252,0.19661 -2.49795,0.58979 -0.70544,0.38165 -1.71156,1.34151 -3.01835,2.87958 l 0,9.14181 1.64795,0 c 0.34693,0 0.59557,0.0694 0.74592,0.20816 0.15033,0.12721 0.2255,0.30068 0.22551,0.52041 -10e-6,0.20816 -0.0752,0.38163 -0.22551,0.5204 -0.15035,0.13878 -0.39899,0.20816 -0.74592,0.20816 l -4.75304,0 c -0.34694,0 -0.59558,-0.0694 -0.74592,-0.20816 -0.15034,-0.13877 -0.22551,-0.31224 -0.22551,-0.5204 0,-0.21973 0.0752,-0.3932 0.22551,-0.52041 0.15034,-0.13877 0.39898,-0.20816 0.74592,-0.20816 l 1.64795,0 0,-12.09077 -1.23163,0 c -0.34694,10e-6 -0.59558,-0.0694 -0.74591,-0.20817 -0.15034,-0.13876 -0.22551,-0.31801 -0.22551,-0.53775 0,-0.20815 0.0752,-0.38162 0.22551,-0.52041 0.15033,-0.13876 0.39897,-0.20814 0.74591,-0.20816 l 2.68877,0"
           inkscape:connector-curvature="0" />
        <path
           id="path3860"
           d="m 583.71251,641.07868 7.91018,0 c 0.34692,2e-5 0.59556,0.0694 0.74591,0.20816 0.15033,0.13879 0.2255,0.31804 0.22551,0.53776 -10e-6,0.20817 -0.0752,0.38164 -0.22551,0.5204 -0.15035,0.13879 -0.39899,0.20818 -0.74591,0.20817 l -7.91018,0 0,9.6969 c 0,0.84422 0.33537,1.54965 1.00612,2.11632 0.6823,0.56666 1.67686,0.84999 2.98367,0.84999 0.98297,0 2.04691,-0.14455 3.19182,-0.43367 1.14488,-0.30068 2.03535,-0.63605 2.67142,-1.00612 0.23127,-0.15033 0.42209,-0.2255 0.57245,-0.22551 0.18501,1e-5 0.34692,0.0752 0.48571,0.22551 0.13875,0.13878 0.20814,0.30647 0.20816,0.50306 -2e-5,0.17347 -0.0752,0.33538 -0.22551,0.48571 -0.37008,0.38164 -1.27212,0.79796 -2.70611,1.24898 -1.42246,0.43945 -2.78708,0.65918 -4.09386,0.65918 -1.70001,0 -3.05306,-0.39898 -4.05917,-1.19693 -1.00613,-0.79796 -1.50919,-1.87346 -1.50918,-3.22652 l 0,-9.6969 -2.68876,0 c -0.34695,10e-6 -0.59558,-0.0694 -0.74592,-0.20817 -0.15034,-0.13876 -0.22551,-0.31801 -0.22551,-0.53775 0,-0.20815 0.0752,-0.38162 0.22551,-0.52041 0.15034,-0.13876 0.39897,-0.20814 0.74592,-0.20816 l 2.68876,0 0,-4.30202 c -10e-6,-0.34692 0.0694,-0.59556 0.20816,-0.74592 0.13877,-0.15032 0.31224,-0.22549 0.52041,-0.22551 0.21972,2e-5 0.39897,0.0752 0.53775,0.22551 0.13877,0.15036 0.20816,0.399 0.20816,0.74592 l 0,4.30202"
           inkscape:connector-curvature="0" />
      </g>
      <text
         sodipodi:linespacing="125%"
         id="text3835"
         y="652.66248"
         x="630.28961"
         style="font-size:34.78090286px;font-style:normal;font-variant:normal;font-weight:normal;font-stretch:normal;line-height:125%;letter-spacing:0px;word-spacing:0px;fill:#000000;fill-opacity:1;stroke:none;font-family:Monospace;-inkscape-font-specification:Monospace"
         xml:space="preserve"><tspan
           y="652.66248"
           x="630.28961"
           id="tspan3837"
           sodipodi:role="line">Report</tspan></text>
      <text
         sodipodi:linespacing="125%"
         id="text3839"
         y="652.4743"
         x="793.65875"
         style="font-size:21.16425705px;font-style:normal;font-variant:normal;font-weight:normal;font-stretch:normal;line-height:125%;letter-spacing:0px;word-spacing:0px;fill:#ffffff;fill-opacity:1;stroke:none;font-family:Monospace;-inkscape-font-specification:Monospace"
         xml:space="preserve"><tspan
           y="652.4743"
           x="793.65875"
           id="tspan3841"
           sodipodi:role="line">Irrelevant!</tspan></text>
      <text
         sodipodi:linespacing="125%"
         id="text3898"
         y="564.22583"
         x="437.12424"
         style="font-size:29.42585754px;font-style:normal;font-variant:normal;font-weight:normal;font-stretch:normal;line-height:125%;letter-spacing:0px;word-spacing:0px;fill:#000000;fill-opacity:1;stroke:none;font-family:Monospace;-inkscape-font-specification:Monospace"
         xml:space="preserve"><tspan
           y="564.22583"
           x="437.12424"
           id="tspan3900"
           sodipodi:role="line">This is the title of the Link</tspan></text>
      <text
         sodipodi:linespacing="125%"
         id="text3904"
         y="601.75568"
         x="439.7778"
         style="font-size:18.38695717px;font-style:normal;font-variant:normal;font-weight:normal;font-stretch:normal;line-height:125%;letter-spacing:0px;word-spacing:0px;fill:#000000;fill-opacity:1;stroke:none;font-family:Monospace;-inkscape-font-specification:Monospace"
         xml:space="preserve"><tspan
           y="601.75568"
           x="439.7778"
           id="tspan3906"
           sodipodi:role="line">Information Cone - Username - Posted 1h ago...</tspan></text>
      <g
         transform="translate(0,-5.1598238)"
         id="g3977">
        <g
           id="g3967"
           transform="translate(242.18392,-72.713728)">
          <path
             transform="translate(5.086171,305.23718)"
             d="m 149.50257,341.54871 a 38.890873,26.769043 0 1 1 -77.781741,0 38.890873,26.769043 0 1 1 77.781741,0 z"
             sodipodi:ry="26.769043"
             sodipodi:rx="38.890873"
             sodipodi:cy="341.54871"
             sodipodi:cx="110.6117"
             id="path3902"
             style="color:#000000;fill:#ffffff;fill-opacity:1;fill-rule:nonzero;stroke:#000000;stroke-width:1.5;stroke-linecap:round;stroke-linejoin:round;stroke-miterlimit:4;stroke-opacity:1;stroke-dasharray:none;marker:none;visibility:visible;display:inline;overflow:visible;enable-background:accumulate"
             sodipodi:type="arc" />
          <text
             sodipodi:linespacing="125%"
             id="text3927"
             y="613.83838"
             x="69.876968"
             style="font-size:14.67933178px;font-style:normal;font-variant:normal;font-weight:normal;font-stretch:normal;line-height:125%;letter-spacing:0px;word-spacing:0px;fill:#000000;fill-opacity:1;stroke:none;font-family:Monospace;-inkscape-font-specification:Monospace"
             xml:space="preserve"><tspan
               y="613.83838"
               x="69.876968"
               id="tspan3929"
               sodipodi:role="line">Click Count</tspan></text>
        </g>
        <g
           id="g3972"
           transform="translate(110.10668,2.0030499)">
          <path
             transform="translate(134.36792,305.23718)"
             d="m 149.50257,341.54871 a 38.890873,26.769043 0 1 1 -77.781741,0 38.890873,26.769043 0 1 1 77.781741,0 z"
             sodipodi:ry="26.769043"
             sodipodi:rx="38.890873"
             sodipodi:cy="341.54871"
             sodipodi:cx="110.6117"
             id="path3902-6"
             style="color:#000000;fill:#ffffff;fill-opacity:1;fill-rule:nonzero;stroke:#000000;stroke-width:1.5;stroke-linecap:round;stroke-linejoin:round;stroke-miterlimit:4;stroke-opacity:1;stroke-dasharray:none;marker:none;visibility:visible;display:inline;overflow:visible;enable-background:accumulate"
             sodipodi:type="arc" />
          <text
             sodipodi:linespacing="125%"
             id="text3951"
             y="613.78668"
             x="200.53314"
             style="font-size:15.0106678px;font-style:normal;font-variant:normal;font-weight:normal;font-stretch:normal;line-height:125%;letter-spacing:0px;word-spacing:0px;fill:#000000;fill-opacity:1;stroke:none;font-family:Monospace;-inkscape-font-specification:Monospace"
             xml:space="preserve"><tspan
               y="613.78668"
               x="200.53314"
               id="tspan3953"
               sodipodi:role="line">Irrelevance</tspan></text>
        </g>
      </g>
      <rect
         y="530.72296"
         x="98.994949"
         height="136.37059"
         width="136.37059"
         id="rect4005"
         style="color:#000000;fill:#ffffff;fill-opacity:1;fill-rule:nonzero;stroke:#000000;stroke-width:1.5;stroke-linecap:round;stroke-linejoin:round;stroke-miterlimit:4;stroke-opacity:1;stroke-dasharray:none;marker:none;visibility:visible;display:inline;overflow:visible;enable-background:accumulate" />
      <text
         transform="matrix(0.77435248,-0.63275449,0.63275449,0.77435248,0,0)"
         sodipodi:linespacing="125%"
         id="text4007"
         y="578.15173"
         x="-322.67114"
         style="font-size:27.23912811px;font-style:normal;font-variant:normal;font-weight:normal;font-stretch:normal;line-height:125%;letter-spacing:0px;word-spacing:0px;fill:#000000;fill-opacity:1;stroke:none;font-family:Monospace;-inkscape-font-specification:Monospace"
         xml:space="preserve"><tspan
           y="578.15173"
           x="-322.67114"
           id="tspan4009"
           sodipodi:role="line">thumbnail</tspan></text>
    </g>
    <path
       style="color:#000000;fill:#ffffff;fill-opacity:1;fill-rule:nonzero;stroke:#000000;stroke-width:1.5;stroke-linecap:round;stroke-linejoin:round;stroke-miterlimit:4;stroke-opacity:1;stroke-dasharray:none;marker:none;visibility:visible;display:inline;overflow:visible;enable-background:accumulate"
       d="m 972.84375,-128.75 0,386.15625 -12.75,12.75 12.75,12.75 0,99.75 651.43745,0 0,-511.40625 -651.43745,0 z"
       transform="translate(0,308.26765)"
       id="rect4011"
       inkscape:connector-curvature="0" />
    <text
       xml:space="preserve"
       style="font-size:29.48114586px;font-style:normal;font-variant:normal;font-weight:normal;font-stretch:normal;line-height:125%;letter-spacing:0px;word-spacing:0px;fill:#000000;fill-opacity:1;stroke:none;font-family:Monospace;-inkscape-font-specification:Monospace"
       x="328.43372"
       y="1211.7256"
       id="text4050"
       sodipodi:linespacing="125%"
       transform="matrix(0.70710678,-0.70710678,0.70710678,0.70710678,0,0)"><tspan
         sodipodi:role="line"
         id="tspan4052"
         x="328.43372"
         y="1211.7256">On hover:</tspan><tspan
         sodipodi:role="line"
         x="328.43372"
         y="1248.577"
         id="tspan4056">Bring out the description field</tspan></text>
    <text
       xml:space="preserve"
       style="font-size:40px;font-style:normal;font-variant:normal;font-weight:normal;font-stretch:normal;line-height:125%;letter-spacing:0px;word-spacing:0px;fill:#000000;fill-opacity:1;stroke:none;font-family:Monospace;-inkscape-font-specification:Monospace"
       x="1876.8634"
       y="314.77966"
       id="text4060"
       sodipodi:linespacing="125%"
       transform="translate(0,308.26765)"><tspan
         sodipodi:role="line"
         id="tspan4062"
         x="1876.8634"
         y="314.77966"> </tspan></text>
  </g>
</svg>
